<svg id="Layer_1" data-name="Layer 1" xmlns="http://www.w3.org/2000/svg" viewBox="0 0 1182 600"><defs><style>.cls-1{fill:#ff4d4f;}.cls-2{fill:#f8c752;}.cls-3{fill:#2d9589;}.cls-4{fill:#3ed0c0;}.cls-5{fill:#4297dd;}.cls-6{fill:#2e3d99;}.cls-7{fill:#7365be;}.cls-8{fill:#a63242;}.cls-9{fill:#262626;}</style></defs><path class="cls-1" d="M492.76,247.81a200.49,200.49,0,0,0-190.19-147v96a104,104,0,0,1,52.72,191.9l49.07,82.56A200.5,200.5,0,0,0,492.76,247.81Z"/><path class="cls-2" d="M297.29,196.87v-96a200.23,200.23,0,0,0-44.08,5.52l23.67,93.08A104.67,104.67,0,0,1,297.29,196.87Z"/><path class="cls-3" d="M203.72,125.48,251,209.06a103.79,103.79,0,0,1,20.72-8.33l-23.67-93.08A199.58,199.58,0,0,0,203.72,125.48Z"/><path class="cls-4" d="M246.44,211.66l-47.31-83.58a198.59,198.59,0,0,0-57,49.91l76.57,58A103.29,103.29,0,0,1,246.44,211.66Z"/><path class="cls-5" d="M138.91,182.2a201.26,201.26,0,0,0-34.49,76.59l94.15,18.93a104.74,104.74,0,0,1,16.92-37.55Z"/><path class="cls-6" d="M118.71,385.34l86.49-41.75a104.65,104.65,0,0,1-7.67-60.69L103.37,264A201.32,201.32,0,0,0,118.71,385.34Z"/><path class="cls-7" d="M221,484.52l36.76-88.74a103.76,103.76,0,0,1-50.23-47.43L121,390.1A199.74,199.74,0,0,0,221,484.52Z"/><path class="cls-8" d="M264.62,398.56l-2-.75-36.75,88.73c2,.81,4.1,1.59,6.16,2.34A199.29,199.29,0,0,0,399.82,474l-49.07-82.56A103.58,103.58,0,0,1,264.62,398.56Z"/><path class="cls-9" d="M560.81,172.08h74.83V194H587.09v21.6h38.67v21.76H587.09v39.34H560.81Z"/><path class="cls-9" d="M687.71,267.33c-5.53,6.53-11.72,11.89-22.44,11.89-13.39,0-23.77-9.54-23.77-21.6,0-14.73,11-26.61,46-27.62v-1.5c0-8.21-4.19-11.89-13.73-11.89-8,0-17.41,3.35-26.45,7.87L642,205.56a78.41,78.41,0,0,1,35.83-9.2c26.95,0,35.82,12.22,35.49,34l-.17,23.1c0,5.36,1,5.86,6.36,6.36L717,278.22c-16.91,2.17-25.28-2.35-28.79-10.89Zm-.17-25.27c-15.91,1.84-21.76,4.85-21.76,11.71,0,5,4,8.37,9.71,8.37a15.93,15.93,0,0,0,12-5.18Z"/><path class="cls-9" d="M757,240.21v36.5H731.23V166.05L757,162.87v69.48h.17L781,198.87h29.63l-28.62,37,28.79,40.85h-29.3l-24.27-36.5Z"/><path class="cls-9" d="M851.6,279.22c-19.25,0-29.63-7.87-28.63-28.29l1.17-29.63-11.71-2,.5-16.41L824.65,199l.33-17.74h24.94l-.16,18.58h19.42l-.51,20.26H847.92l-.84,28c-.34,7.2,3.85,10.21,10.21,10.21a33.41,33.41,0,0,0,10.21-2l3,20.08A58.2,58.2,0,0,1,851.6,279.22Z"/><path class="cls-9" d="M931.79,273l-3.85,10.21c-8,22.76-17.75,29.63-34.15,29.63a53.73,53.73,0,0,1-23.11-5l7.71-19.59c5,2.18,8,3.52,12.05,3.52,5.52,0,8-2,11-9.55l2.17-6L873.2,198.87h27.62l16.57,51.22,15.07-51.22h27.45Z"/><path class="cls-9" d="M596.3,428C572.86,428,555,413.3,555,386.85s18.75-41.69,42.35-41.69c23.44,0,41.19,15.07,41.19,41.19S619.57,428,596.3,428Zm.33-63.28c-10.54,0-16.07,8.54-16.07,21.93,0,13.23,5.7,21.6,16.24,21.6s16.07-8.37,16.07-21.77C612.87,373.46,607.18,364.75,596.63,364.75Z"/><path class="cls-9" d="M716.67,389v36.5H690.89V314.86l25.78-3.18v69.48h.16l23.78-33.48h29.63l-28.63,37,28.79,40.85H741.11L716.83,389Z"/><path class="cls-9" d="M780,425.52V314.86l25.78-3.18V425.52Z"/><path class="cls-9" d="M824.81,425.52v-77l25.78-2.17v79.18Zm18.42-88.22H827.16l16.57-31h27.79Z"/><path class="cls-9" d="M966.27,425.52V379.65c0-9.37-4-12.56-10.55-12.56a19,19,0,0,0-12.55,5v53.4H917.39V379.65c0-9.37-4.19-12.56-10.72-12.56a19.19,19.19,0,0,0-12.55,4.69v53.74H868.34V349l25.78-3.18v10.89c6.86-7,14.56-11.56,24.78-11.56,9.7,0,18.24,4.86,21.93,13.9,7.19-8.37,16.4-13.9,26.95-13.9,15.06,0,24.27,10.22,24.27,27v53.4Z"/><path class="cls-9" d="M1031.23,392.71c.83,10.38,8,16.4,20.59,16.4,8.53,0,17.57-3,25.44-7.53l2.51,19.92c-7.86,4-19.08,6.36-30.3,6.36-26.45,0-43.52-14.73-43.52-40.68,0-25.44,17.41-42,42.18-42,22.1,0,34.15,13.23,34.15,32.65a58.47,58.47,0,0,1-1.67,13.73l-49.38.83Zm27.12-13.39v-1.51c0-9.21-3.85-14.9-11.89-14.9-8.87,0-14.23,7.7-15.07,16.57Z"/></svg>