<svg xmlns="http://www.w3.org/2000/svg" viewBox="0 0 553 100"><defs><style>.cls-1{fill:#ff4d4f;}.cls-2{fill:#f8c752;}.cls-3{fill:#2d9589;}.cls-4{fill:#3ed0c0;}.cls-5{fill:#4297dd;}.cls-6{fill:#2e3d99;}.cls-7{fill:#7365be;}.cls-8{fill:#a63242;}.cls-9{fill:#262626;}</style></defs><g id="Layer_1" data-name="Layer 1"><path class="cls-1" d="M82.565,41.181a33.871,33.871,0,0,0-32.131-24.83V32.576a17.561,17.561,0,0,1,8.907,32.418l8.29,13.948A33.871,33.871,0,0,0,82.565,41.181Z"/><path class="cls-2" d="M49.542,32.576V16.351a33.786,33.786,0,0,0-7.446.932l4,15.725A17.565,17.565,0,0,1,49.542,32.576Z"/><path class="cls-3" d="M33.735,20.514l7.993,14.12a17.536,17.536,0,0,1,3.5-1.406l-4-15.725A33.762,33.762,0,0,0,33.735,20.514Z"/><path class="cls-4" d="M40.952,35.074l-7.993-14.12a33.566,33.566,0,0,0-9.634,8.431l12.936,9.794A17.416,17.416,0,0,1,40.952,35.074Z"/><path class="cls-5" d="M22.787,30.1a34.008,34.008,0,0,0-5.829,12.94l15.907,3.2a17.693,17.693,0,0,1,2.858-6.344Z"/><path class="cls-6" d="M19.373,64.416l14.612-7.054a17.683,17.683,0,0,1-1.3-10.253l-15.907-3.2A34,34,0,0,0,19.373,64.416Z"/><path class="cls-7" d="M36.649,81.17l6.209-14.99a17.539,17.539,0,0,1-8.485-8.014L19.761,65.22A33.743,33.743,0,0,0,36.649,81.17Z"/><path class="cls-8" d="M44.024,66.648c-.114-.04-.228-.083-.341-.127L37.474,81.512c.344.137.692.269,1.04.395A33.663,33.663,0,0,0,66.864,79.4L58.574,65.45A17.492,17.492,0,0,1,44.024,66.648Z"/><path class="cls-9" d="M103.723,31.252h26.819v7.859h-17.4v7.74H127v7.8h-13.86v14.1h-9.419Z"/><path class="cls-9" d="M149.2,65.39c-1.98,2.34-4.2,4.26-8.039,4.26-4.8,0-8.52-3.42-8.52-7.74,0-5.279,3.96-9.539,16.5-9.9v-.54c0-2.94-1.5-4.26-4.92-4.26-2.88,0-6.239,1.2-9.479,2.82l-1.92-6.78a28.067,28.067,0,0,1,12.839-3.3c9.66,0,12.84,4.38,12.72,12.18l-.06,8.279c0,1.92.36,2.1,2.28,2.281l-.9,6.6c-6.06.78-9.06-.84-10.32-3.9Zm-.06-9.059c-5.7.66-7.8,1.739-7.8,4.2,0,1.8,1.44,3,3.48,3a5.7,5.7,0,0,0,4.32-1.859Z"/><path class="cls-9" d="M178.482,69.65c-9.24,0-15.12-5.16-15.12-14.639,0-9.24,6-15.06,15.359-15.06a21.279,21.279,0,0,1,10.14,2.34l-1.8,6.96a15.676,15.676,0,0,0-7.38-2.16c-4.44,0-6.9,3.12-6.9,7.62,0,4.98,2.82,7.739,7.14,7.739a13.785,13.785,0,0,0,7.379-2.1l1.38,7.02C186.341,68.81,182.5,69.65,178.482,69.65Z"/><path class="cls-9" d="M205.061,69.65c-6.9,0-10.619-2.82-10.26-10.14l.42-10.619-4.2-.72.18-5.88,4.2-1.38.121-6.36h8.939l-.06,6.66h6.96l-.18,7.26h-7.44l-.3,10.019c-.12,2.58,1.38,3.661,3.66,3.661a11.982,11.982,0,0,0,3.66-.721l1.08,7.2A20.934,20.934,0,0,1,205.061,69.65Z"/><path class="cls-9" d="M226.421,69.65c-3.84,0-8.879-.9-11.819-2.46l1.8-6.66a23.025,23.025,0,0,0,10.2,2.641c2.46,0,3.78-.841,3.78-2.281,0-1.559-1.56-2.159-4.74-2.88-6.479-1.259-10.619-3.659-10.619-9.119,0-5.22,4.56-8.94,12.3-8.94a30.278,30.278,0,0,1,11.34,2.4l-1.86,6.6a24.082,24.082,0,0,0-9.6-2.52c-2.22,0-3.42.72-3.42,2.1,0,1.5,1.74,2.1,4.8,2.76,6.6,1.44,10.5,3.6,10.5,9.179C239.081,65.51,234.641,69.65,226.421,69.65Z"/><path class="cls-9" d="M271.06,69.65c-8.4,0-14.819-5.28-14.819-14.759s6.72-14.94,15.18-14.94c8.4,0,14.759,5.4,14.759,14.76S279.4,69.65,271.06,69.65Zm.12-22.679c-3.779,0-5.759,3.06-5.759,7.86,0,4.739,2.04,7.739,5.819,7.739s5.76-3,5.76-7.8C277,50.091,274.96,46.971,271.18,46.971Z"/><path class="cls-9" d="M309.519,68.75v-16.5c0-3.36-1.5-4.44-3.96-4.44a7.756,7.756,0,0,0-5.039,2.1V68.75h-9.24V41.331l9.24-1.14v4.56c2.46-2.82,5.759-4.8,9.359-4.8,5.58,0,8.88,3.66,8.88,9.6v19.2Z"/><path class="cls-9" d="M367.658,41.151a18.694,18.694,0,0,0-9.48-2.7c-6.48,0-10.679,4.38-10.679,11.46,0,7.139,3.96,11.639,10.739,11.639a18.048,18.048,0,0,0,9.9-3.06l1.98,8.46c-2.94,1.62-7.92,2.7-12.3,2.7-12,0-19.919-6.9-19.919-19.5,0-12.12,7.86-19.8,20.219-19.8a28.9,28.9,0,0,1,12.42,2.82Z"/><path class="cls-9" d="M375.638,68.75V29.092l9.24-1.14v40.8Z"/><path class="cls-9" d="M396.1,36.891c-3.36,0-5.46-1.739-5.46-4.919,0-3.24,2.1-4.98,5.46-4.98,3.42,0,5.46,1.74,5.46,4.98C401.558,35.152,399.518,36.891,396.1,36.891Zm-4.62,31.859V41.331l9.24-1.14V68.75Z"/><path class="cls-9" d="M442.416,68.75V52.311c0-3.36-1.44-4.5-3.78-4.5a6.831,6.831,0,0,0-4.5,1.8V68.75H424.9V52.311c0-3.36-1.5-4.5-3.84-4.5a6.879,6.879,0,0,0-4.5,1.68V68.75h-9.24V41.331l9.24-1.14v3.9c2.46-2.52,5.22-4.14,8.88-4.14a8.143,8.143,0,0,1,7.86,4.98c2.58-3,5.879-4.98,9.659-4.98,5.4,0,8.7,3.66,8.7,9.66V68.75Z"/><path class="cls-9" d="M473.2,65.39c-1.98,2.34-4.2,4.26-8.039,4.26-4.8,0-8.52-3.42-8.52-7.74,0-5.279,3.96-9.539,16.5-9.9v-.54c0-2.94-1.5-4.26-4.92-4.26-2.879,0-6.239,1.2-9.479,2.82l-1.92-6.78a28.071,28.071,0,0,1,12.839-3.3c9.66,0,12.84,4.38,12.72,12.18l-.06,8.279c0,1.92.36,2.1,2.28,2.281l-.9,6.6c-6.06.78-9.06-.84-10.32-3.9Zm-.06-9.059c-5.7.66-7.8,1.739-7.8,4.2,0,1.8,1.439,3,3.48,3a5.7,5.7,0,0,0,4.319-1.859Z"/><path class="cls-9" d="M500.016,69.65c-6.9,0-10.62-2.82-10.26-10.14l.42-10.619-4.2-.72.18-5.88,4.2-1.38.12-6.36h8.94l-.06,6.66h6.96l-.181,7.26H498.7l-.3,10.019c-.12,2.58,1.38,3.661,3.659,3.661a11.976,11.976,0,0,0,3.66-.721l1.081,7.2A20.939,20.939,0,0,1,500.016,69.65Z"/><path class="cls-9" d="M518.676,56.991c.3,3.72,2.88,5.879,7.38,5.879a18.887,18.887,0,0,0,9.119-2.7l.9,7.139a25.013,25.013,0,0,1-10.859,2.28c-9.48,0-15.6-5.28-15.6-14.579,0-9.12,6.24-15.06,15.12-15.06,7.919,0,12.239,4.74,12.239,11.7a20.883,20.883,0,0,1-.6,4.919l-17.7.3Zm9.72-4.8v-.54c0-3.3-1.38-5.34-4.26-5.34-3.18,0-5.1,2.76-5.4,5.94Z"/></g></svg>