<svg xmlns="http://www.w3.org/2000/svg" viewBox="0 0 561 283.465"><defs><style>.cls-1{fill:#4c98d9;}.cls-2{fill:#3d4a99;}.cls-3{fill:#4cbdaa;}.cls-4{fill:#2d8c79;}.cls-5{fill:#f8c152;}.cls-6{fill:#ff4f51;}.cls-7{fill:#a63242;}.cls-8{fill:#7a55aa;}.cls-9{fill:#262626;}</style></defs><g id="Layer_1" data-name="Layer 1"><path class="cls-1" d="M190.627,132.491l44.789-8.315a94.9,94.9,0,0,0-91.792-76.319V93.411A49.354,49.354,0,0,1,190.627,132.491Z"/><path class="cls-2" d="M197.8,219.748a95.1,95.1,0,0,0,38.08-93.084l-44.79,8.315a49.46,49.46,0,0,1-19.41,47.446Z"/><path class="cls-3" d="M141.094,93.411V47.858a94.884,94.884,0,0,0-20.281,2.47L131.748,94.55A49.466,49.466,0,0,1,141.094,93.411Z"/><path class="cls-4" d="M99.231,58.217l21.244,40.3a49.331,49.331,0,0,1,8.816-3.356L118.356,50.935A94.875,94.875,0,0,0,99.231,58.217Z"/><path class="cls-5" d="M118.237,99.694,96.992,59.4a94.3,94.3,0,0,0-27.04,22.012L105.1,110.385A49.03,49.03,0,0,1,118.237,99.694Z"/><path class="cls-6" d="M47.471,142.166l45.554-.333a49.444,49.444,0,0,1,10.469-29.5L68.343,83.361A95.063,95.063,0,0,0,47.471,142.166Z"/><path class="cls-7" d="M96.5,225.809l21.483-40.17a49.314,49.314,0,0,1-24.94-41.276L47.49,144.7A94.825,94.825,0,0,0,96.5,225.809Z"/><path class="cls-8" d="M120.214,186.832,98.732,227a94.411,94.411,0,0,0,96.992-5.8l-26.119-37.323A49.08,49.08,0,0,1,120.214,186.832Z"/><path class="cls-9" d="M266.17,81.673h35.516V92.081H278.645V102.33H297v10.329H278.645V131.33H266.17Z"/><path class="cls-9" d="M326.4,126.881c-2.622,3.1-5.561,5.641-10.646,5.641-6.356,0-11.282-4.529-11.282-10.249,0-6.992,5.243-12.633,21.849-13.11v-.715c0-3.893-1.986-5.641-6.515-5.641-3.814,0-8.263,1.589-12.553,3.734l-2.543-8.978a37.169,37.169,0,0,1,17-4.37c12.791,0,17,5.8,16.844,16.129l-.08,10.964c0,2.543.477,2.781,3.019,3.019l-1.191,8.74c-8.025,1.033-12-1.112-13.666-5.164Zm-.079-12c-7.548.875-10.329,2.305-10.329,5.563,0,2.383,1.907,3.972,4.608,3.972a7.552,7.552,0,0,0,5.721-2.463Z"/><path class="cls-9" d="M359.292,114.009V131.33H347.056V78.812l12.236-1.51v32.974h.079l11.282-15.891h14.063L371.13,111.944,384.8,131.33h-13.9l-11.521-17.321Z"/><path class="cls-9" d="M404.184,132.522c-9.137,0-14.063-3.734-13.586-13.428l.556-14.063-5.562-.953.239-7.786,5.561-1.827.159-8.423H403.39l-.08,8.82h9.216l-.238,9.613h-9.852l-.4,13.269c-.159,3.416,1.827,4.847,4.846,4.847a15.872,15.872,0,0,0,4.847-.954l1.43,9.535A27.748,27.748,0,0,1,404.184,132.522Z"/><path class="cls-9" d="M442.243,129.582l-1.827,4.847c-3.814,10.806-8.422,14.063-16.208,14.063a25.442,25.442,0,0,1-10.965-2.383l3.655-9.3c2.384,1.032,3.813,1.668,5.721,1.668,2.621,0,3.813-.953,5.243-4.529l1.034-2.86L414.435,94.385h13.109L435.41,118.7l7.151-24.312h13.03Z"/><path class="cls-9" d="M283.014,203.15c-11.123,0-19.624-6.992-19.624-19.545s8.9-19.784,20.1-19.784c11.123,0,19.545,7.151,19.545,19.545S294.058,203.15,283.014,203.15Zm.159-30.033c-5.006,0-7.627,4.052-7.627,10.408,0,6.277,2.7,10.25,7.706,10.25s7.628-3.973,7.628-10.329C290.88,177.248,288.179,173.117,283.173,173.117Z"/><path class="cls-9" d="M340.143,184.637v17.321H327.907V149.44l12.236-1.51V180.9h.079L351.5,165.013h14.063l-13.586,17.559,13.666,19.386h-13.9l-11.521-17.321Z"/><path class="cls-9" d="M370.178,201.958V149.44l12.235-1.51v54.028Z"/><path class="cls-9" d="M391.471,201.958V165.41l12.236-1.033v37.581Zm8.74-41.871h-7.628l7.867-14.7h13.189Z"/><path class="cls-9" d="M458.609,201.958v-21.77c0-4.449-1.906-5.959-5-5.959a9.042,9.042,0,0,0-5.959,2.384v25.345H435.409v-21.77c0-4.449-1.986-5.959-5.085-5.959a9.112,9.112,0,0,0-5.959,2.225v25.5H412.13V165.649l12.235-1.51V169.3c3.258-3.337,6.913-5.482,11.76-5.482,4.607,0,8.66,2.3,10.408,6.595,3.416-3.973,7.786-6.595,12.791-6.595,7.151,0,11.521,4.847,11.521,12.792v25.345Z"/><path class="cls-9" d="M489.439,186.385c.4,4.927,3.814,7.787,9.773,7.787a25.017,25.017,0,0,0,12.077-3.576l1.191,9.455a33.119,33.119,0,0,1-14.381,3.02c-12.553,0-20.657-6.992-20.657-19.308,0-12.076,8.263-19.942,20.022-19.942,10.488,0,16.208,6.277,16.208,15.493a27.588,27.588,0,0,1-.8,6.515l-23.438.4Zm12.872-6.356v-.715c0-4.369-1.828-7.071-5.642-7.071-4.211,0-6.753,3.655-7.15,7.866Z"/></g></svg>