<svg xmlns="http://www.w3.org/2000/svg" viewBox="0 0 466.998 100"><defs><style>.cls-1{fill:#4c98d9;}.cls-2{fill:#3d4a99;}.cls-3{fill:#4cbdaa;}.cls-4{fill:#2d8c79;}.cls-5{fill:#f8c152;}.cls-6{fill:#ff4f51;}.cls-7{fill:#a63242;}.cls-8{fill:#7a55aa;}.cls-9{fill:#262626;}</style></defs><g id="Layer_1" data-name="Layer 1"><path class="cls-1" d="M67.171,46.476l15.942-2.96A33.779,33.779,0,0,0,50.44,16.351V32.566A17.568,17.568,0,0,1,67.171,46.476Z"/><path class="cls-2" d="M69.723,77.535A33.849,33.849,0,0,0,83.278,44.4l-15.943,2.96A17.605,17.605,0,0,1,60.426,64.25Z"/><path class="cls-3" d="M49.54,32.566V16.351a33.818,33.818,0,0,0-7.219.879l3.892,15.741A17.561,17.561,0,0,1,49.54,32.566Z"/><path class="cls-4" d="M34.639,20.038,42.2,34.382a17.526,17.526,0,0,1,3.138-1.194L41.446,17.446A33.772,33.772,0,0,0,34.639,20.038Z"/><path class="cls-5" d="M41.4,34.8,33.842,20.458a33.576,33.576,0,0,0-9.625,7.835L36.729,38.608A17.452,17.452,0,0,1,41.4,34.8Z"/><path class="cls-6" d="M16.215,49.92,32.43,49.8a17.6,17.6,0,0,1,3.726-10.5L23.644,28.988A33.836,33.836,0,0,0,16.215,49.92Z"/><path class="cls-7" d="M33.667,79.692l7.646-14.3A17.555,17.555,0,0,1,32.436,50.7l-16.215.119A33.753,33.753,0,0,0,33.667,79.692Z"/><path class="cls-8" d="M42.107,65.819l-7.646,14.3a33.6,33.6,0,0,0,34.524-2.066l-9.3-13.285A17.471,17.471,0,0,1,42.107,65.819Z"/><path class="cls-9" d="M103.723,31.251h26.818v7.86h-17.4v7.74H127v7.8H113.142v14.1h-9.419Z"/><path class="cls-9" d="M149.2,65.39c-1.98,2.34-4.2,4.26-8.04,4.26-4.8,0-8.519-3.42-8.519-7.74,0-5.28,3.96-9.539,16.5-9.9V51.47c0-2.939-1.5-4.26-4.92-4.26-2.88,0-6.24,1.2-9.48,2.821l-1.92-6.78a28.075,28.075,0,0,1,12.84-3.3c9.659,0,12.839,4.38,12.72,12.179l-.061,8.28c0,1.92.361,2.1,2.281,2.281l-.9,6.6c-6.059.78-9.059-.839-10.319-3.9Zm-.06-9.059c-5.7.66-7.8,1.739-7.8,4.2,0,1.8,1.44,3,3.48,3a5.7,5.7,0,0,0,4.32-1.861Z"/><path class="cls-9" d="M174.041,55.67V68.749H164.8V29.091l9.239-1.139v24.9h.061l8.519-12H193.24l-10.26,13.26L193.3,68.749H182.8L174.1,55.67Z"/><path class="cls-9" d="M207.941,69.65c-6.9,0-10.62-2.82-10.259-10.14l.42-10.62-4.2-.719.181-5.881,4.2-1.378.12-6.361h8.94l-.06,6.659h6.96l-.18,7.26h-7.44l-.3,10.02c-.12,2.58,1.38,3.66,3.659,3.66a11.979,11.979,0,0,0,3.661-.72l1.08,7.2A20.934,20.934,0,0,1,207.941,69.65Z"/><path class="cls-9" d="M236.681,67.43l-1.38,3.659c-2.88,8.16-6.361,10.62-12.24,10.62a19.217,19.217,0,0,1-8.28-1.8l2.76-7.02a10.463,10.463,0,0,0,4.32,1.26c1.98,0,2.88-.721,3.96-3.42l.78-2.16L215.682,40.851h9.9l5.94,18.359,5.4-18.359h9.84Z"/><path class="cls-9" d="M276.82,69.65c-8.4,0-14.819-5.279-14.819-14.76s6.72-14.939,15.18-14.939c8.4,0,14.758,5.4,14.758,14.759S285.16,69.65,276.82,69.65Zm.12-22.68c-3.78,0-5.759,3.061-5.759,7.861,0,4.739,2.04,7.739,5.819,7.739s5.76-3,5.76-7.8C282.76,50.091,280.72,46.97,276.94,46.97Z"/><path class="cls-9" d="M319.96,55.67V68.749h-9.24V29.091l9.24-1.139v24.9h.06l8.519-12h10.62L328.9,54.111l10.32,14.638h-10.5l-8.7-13.079Z"/><path class="cls-9" d="M342.64,68.749V29.091l9.24-1.139v40.8Z"/><path class="cls-9" d="M358.72,68.749v-27.6l9.239-.78V68.749Zm6.6-31.618H359.56l5.939-11.1h9.96Z"/><path class="cls-9" d="M409.418,68.749V52.31c0-3.359-1.44-4.5-3.78-4.5a6.831,6.831,0,0,0-4.5,1.8V68.749H391.9V52.31c0-3.359-1.5-4.5-3.839-4.5a6.875,6.875,0,0,0-4.5,1.68V68.749h-9.24V41.331l9.24-1.14v3.9c2.46-2.519,5.219-4.14,8.879-4.14a8.142,8.142,0,0,1,7.86,4.98c2.58-3,5.88-4.98,9.66-4.98,5.4,0,8.7,3.66,8.7,9.66V68.749Z"/><path class="cls-9" d="M432.7,56.991c.3,3.719,2.88,5.88,7.38,5.88a18.893,18.893,0,0,0,9.12-2.7l.9,7.14a25.029,25.029,0,0,1-10.86,2.279c-9.479,0-15.6-5.279-15.6-14.578,0-9.12,6.24-15.06,15.12-15.06,7.919,0,12.239,4.74,12.239,11.7a20.776,20.776,0,0,1-.6,4.919l-17.7.3Zm9.72-4.8v-.54c0-3.3-1.38-5.34-4.26-5.34-3.179,0-5.1,2.76-5.4,5.939Z"/></g></svg>