<svg xmlns="http://www.w3.org/2000/svg" viewBox="0 0 198.425 198.425"><defs><style>.cls-1{fill:#4c98d9;}.cls-2{fill:#3d4a99;}.cls-3{fill:#4cbdaa;}.cls-4{fill:#2d8c79;}.cls-5{fill:#f8c152;}.cls-6{fill:#ff4f51;}.cls-7{fill:#a63242;}.cls-8{fill:#7a55aa;}</style></defs><g id="Layer_1" data-name="Layer 1"><path class="cls-1" d="M147.265,88.97l44.587-8.278A94.476,94.476,0,0,0,100.475,4.717v45.35A49.128,49.128,0,0,1,147.265,88.97Z"/><path class="cls-2" d="M154.4,175.832a94.663,94.663,0,0,0,37.908-92.663l-44.587,8.277A49.235,49.235,0,0,1,128.4,138.678Z"/><path class="cls-3" d="M97.955,50.067V4.718A94.543,94.543,0,0,0,77.766,7.177L88.651,51.2A49.123,49.123,0,0,1,97.955,50.067Z"/><path class="cls-4" d="M56.281,15.031,77.43,55.146a49.219,49.219,0,0,1,8.776-3.341L75.32,7.782A94.51,94.51,0,0,0,56.281,15.031Z"/><path class="cls-5" d="M75.2,56.321,54.053,16.2A93.9,93.9,0,0,0,27.135,38.118L62.127,66.964A48.785,48.785,0,0,1,75.2,56.321Z"/><path class="cls-6" d="M4.755,98.6,50.1,98.269A49.219,49.219,0,0,1,60.525,68.908L25.533,40.061A94.647,94.647,0,0,0,4.755,98.6Z"/><path class="cls-7" d="M53.563,181.866l21.386-39.988a49.09,49.09,0,0,1-24.827-41.09l-45.348.332A94.4,94.4,0,0,0,53.563,181.866Z"/><path class="cls-8" d="M77.17,143.066,55.785,183.055a93.985,93.985,0,0,0,96.554-5.778l-26-37.155A48.86,48.86,0,0,1,77.17,143.066Z"/></g></svg>