<svg xmlns="http://www.w3.org/2000/svg" viewBox="0 0 466.998 100"><defs><style>.cls-1{fill:#ff4d4f;}.cls-2{fill:#f8c752;}.cls-3{fill:#2d9589;}.cls-4{fill:#3ed0c0;}.cls-5{fill:#4297dd;}.cls-6{fill:#2e3d99;}.cls-7{fill:#7365be;}.cls-8{fill:#a63242;}.cls-9{fill:#262626;}</style></defs><g id="Layer_1" data-name="Layer 1"><path class="cls-1" d="M82.565,41.181a33.871,33.871,0,0,0-32.131-24.83V32.576a17.561,17.561,0,0,1,8.907,32.418l8.29,13.948A33.871,33.871,0,0,0,82.565,41.181Z"/><path class="cls-2" d="M49.542,32.576V16.351a33.786,33.786,0,0,0-7.446.932l4,15.725A17.565,17.565,0,0,1,49.542,32.576Z"/><path class="cls-3" d="M33.735,20.514l7.993,14.12a17.536,17.536,0,0,1,3.5-1.406l-4-15.725A33.762,33.762,0,0,0,33.735,20.514Z"/><path class="cls-4" d="M40.952,35.074l-7.993-14.12a33.566,33.566,0,0,0-9.634,8.431l12.936,9.794A17.416,17.416,0,0,1,40.952,35.074Z"/><path class="cls-5" d="M22.787,30.1a34.008,34.008,0,0,0-5.829,12.94l15.907,3.2a17.693,17.693,0,0,1,2.858-6.344Z"/><path class="cls-6" d="M19.373,64.416l14.612-7.054a17.683,17.683,0,0,1-1.3-10.253l-15.907-3.2A34,34,0,0,0,19.373,64.416Z"/><path class="cls-7" d="M36.649,81.17l6.209-14.99a17.539,17.539,0,0,1-8.485-8.014L19.761,65.22A33.743,33.743,0,0,0,36.649,81.17Z"/><path class="cls-8" d="M44.024,66.648c-.114-.04-.228-.083-.341-.127L37.474,81.512c.344.137.692.269,1.04.395A33.663,33.663,0,0,0,66.864,79.4L58.574,65.45A17.492,17.492,0,0,1,44.024,66.648Z"/><path class="cls-9" d="M103.723,31.251h26.819v7.86h-17.4v7.74H127v7.8h-13.86v14.1h-9.419Z"/><path class="cls-9" d="M149.2,65.39c-1.98,2.34-4.2,4.26-8.039,4.26-4.8,0-8.52-3.42-8.52-7.74,0-5.28,3.96-9.54,16.5-9.9V51.47c0-2.939-1.5-4.259-4.92-4.259-2.88,0-6.239,1.2-9.479,2.82l-1.92-6.78a28.067,28.067,0,0,1,12.839-3.3c9.66,0,12.84,4.38,12.72,12.18l-.06,8.279c0,1.92.36,2.1,2.28,2.28l-.9,6.6c-6.06.78-9.06-.84-10.32-3.9Zm-.06-9.06c-5.7.661-7.8,1.74-7.8,4.2,0,1.8,1.44,3,3.48,3a5.7,5.7,0,0,0,4.32-1.86Z"/><path class="cls-9" d="M174.042,55.67V68.75H164.8V29.092l9.24-1.141v24.9h.06l8.519-12h10.62l-10.26,13.26L193.3,68.75H182.8l-8.7-13.08Z"/><path class="cls-9" d="M207.942,69.65c-6.9,0-10.62-2.82-10.26-10.14l.42-10.62-4.2-.719.18-5.88,4.2-1.38.12-6.36h8.939l-.06,6.66h6.96l-.18,7.259h-7.439l-.3,10.02c-.12,2.58,1.38,3.66,3.66,3.66a11.979,11.979,0,0,0,3.66-.72l1.08,7.2A20.932,20.932,0,0,1,207.942,69.65Z"/><path class="cls-9" d="M236.681,67.43l-1.38,3.66c-2.88,8.159-6.36,10.619-12.24,10.619a19.2,19.2,0,0,1-8.279-1.8l2.76-7.02a10.432,10.432,0,0,0,4.319,1.261c1.98,0,2.88-.721,3.96-3.42l.78-2.16L215.682,40.851h9.9l5.94,18.359,5.4-18.359h9.839Z"/><path class="cls-9" d="M276.82,69.65c-8.4,0-14.819-5.28-14.819-14.76s6.72-14.939,15.18-14.939c8.4,0,14.759,5.4,14.759,14.759S285.16,69.65,276.82,69.65Zm.121-22.68c-3.78,0-5.76,3.061-5.76,7.86,0,4.74,2.04,7.74,5.82,7.74s5.759-3,5.759-7.8C282.76,50.091,280.72,46.97,276.941,46.97Z"/><path class="cls-9" d="M319.96,55.67V68.75h-9.24V29.092l9.24-1.141v24.9h.06l8.52-12h10.619L328.9,54.111,339.219,68.75h-10.5l-8.7-13.08Z"/><path class="cls-9" d="M342.64,68.75V29.092l9.24-1.141v40.8Z"/><path class="cls-9" d="M358.72,68.75v-27.6l9.239-.78V68.75Zm6.6-31.619H359.56l5.94-11.1h9.959Z"/><path class="cls-9" d="M409.418,68.75V52.31c0-3.36-1.44-4.5-3.78-4.5a6.831,6.831,0,0,0-4.5,1.8V68.75H391.9V52.31c0-3.36-1.5-4.5-3.84-4.5a6.879,6.879,0,0,0-4.5,1.68V68.75h-9.24V41.331l9.24-1.14v3.9c2.46-2.52,5.22-4.14,8.88-4.14a8.141,8.141,0,0,1,7.859,4.98c2.581-3,5.88-4.98,9.66-4.98,5.4,0,8.7,3.66,8.7,9.66V68.75Z"/><path class="cls-9" d="M432.7,56.991c.3,3.719,2.88,5.879,7.38,5.879a18.888,18.888,0,0,0,9.119-2.7l.9,7.14a25.013,25.013,0,0,1-10.859,2.28c-9.48,0-15.6-5.28-15.6-14.579,0-9.12,6.24-15.06,15.12-15.06,7.919,0,12.239,4.74,12.239,11.7a20.836,20.836,0,0,1-.6,4.919l-17.7.3Zm9.72-4.8v-.54c0-3.3-1.38-5.34-4.26-5.34-3.18,0-5.1,2.76-5.4,5.939Z"/></g></svg>