<svg xmlns="http://www.w3.org/2000/svg" viewBox="0 0 521.476 100"><defs><style>.cls-1{fill:#ff4d4f;}.cls-2{fill:#f8c752;}.cls-3{fill:#2d9589;}.cls-4{fill:#3ed0c0;}.cls-5{fill:#4297dd;}.cls-6{fill:#2e3d99;}.cls-7{fill:#7365be;}.cls-8{fill:#a63242;}.cls-9{fill:#262626;}</style></defs><g id="Layer_1" data-name="Layer 1"><path class="cls-1" d="M82.565,41.181a33.871,33.871,0,0,0-32.131-24.83V32.576a17.561,17.561,0,0,1,8.907,32.418l8.29,13.948A33.871,33.871,0,0,0,82.565,41.181Z"/><path class="cls-2" d="M49.542,32.576V16.351a33.786,33.786,0,0,0-7.446.932l4,15.725A17.565,17.565,0,0,1,49.542,32.576Z"/><path class="cls-3" d="M33.735,20.514l7.993,14.12a17.536,17.536,0,0,1,3.5-1.406l-4-15.725A33.762,33.762,0,0,0,33.735,20.514Z"/><path class="cls-4" d="M40.952,35.074l-7.993-14.12a33.566,33.566,0,0,0-9.634,8.431l12.936,9.794A17.416,17.416,0,0,1,40.952,35.074Z"/><path class="cls-5" d="M22.787,30.1a34.008,34.008,0,0,0-5.829,12.94l15.907,3.2a17.693,17.693,0,0,1,2.858-6.344Z"/><path class="cls-6" d="M19.373,64.416l14.612-7.054a17.683,17.683,0,0,1-1.3-10.253l-15.907-3.2A34,34,0,0,0,19.373,64.416Z"/><path class="cls-7" d="M36.649,81.17l6.209-14.99a17.539,17.539,0,0,1-8.485-8.014L19.761,65.22A33.743,33.743,0,0,0,36.649,81.17Z"/><path class="cls-8" d="M44.024,66.648c-.114-.04-.228-.083-.341-.127L37.474,81.512c.344.137.692.269,1.04.395A33.663,33.663,0,0,0,66.864,79.4L58.574,65.45A17.492,17.492,0,0,1,44.024,66.648Z"/><path class="cls-9" d="M103.723,31.252h26.819v7.86h-17.4v7.739H127v7.8h-13.86v14.1h-9.419Z"/><path class="cls-9" d="M149.2,65.39c-1.98,2.34-4.2,4.26-8.039,4.26-4.8,0-8.52-3.42-8.52-7.74,0-5.279,3.96-9.539,16.5-9.9v-.54c0-2.94-1.5-4.26-4.92-4.26-2.88,0-6.239,1.2-9.479,2.82l-1.92-6.78a28.067,28.067,0,0,1,12.839-3.3c9.66,0,12.84,4.38,12.72,12.18l-.06,8.279c0,1.92.36,2.1,2.28,2.281l-.9,6.6c-6.06.78-9.06-.84-10.32-3.9Zm-.06-9.059c-5.7.66-7.8,1.74-7.8,4.2,0,1.8,1.44,3,3.48,3a5.7,5.7,0,0,0,4.32-1.859Z"/><path class="cls-9" d="M174.042,55.671V68.75H164.8V29.092l9.24-1.14v24.9h.06l8.519-12h10.62l-10.26,13.26L193.3,68.75H182.8l-8.7-13.079Z"/><path class="cls-9" d="M207.942,69.65c-6.9,0-10.62-2.82-10.26-10.14l.42-10.619-4.2-.72.18-5.88,4.2-1.38.12-6.36h8.939l-.06,6.66h6.96l-.18,7.26h-7.439l-.3,10.019c-.12,2.581,1.38,3.661,3.66,3.661a11.982,11.982,0,0,0,3.66-.721l1.08,7.2A20.932,20.932,0,0,1,207.942,69.65Z"/><path class="cls-9" d="M234.4,65.39c-1.98,2.34-4.2,4.26-8.04,4.26-4.8,0-8.52-3.42-8.52-7.74,0-5.279,3.96-9.539,16.5-9.9v-.54c0-2.94-1.5-4.26-4.92-4.26-2.88,0-6.24,1.2-9.479,2.82l-1.92-6.78a28.067,28.067,0,0,1,12.839-3.3c9.66,0,12.839,4.38,12.72,12.18l-.06,8.279c0,1.92.359,2.1,2.279,2.281l-.9,6.6c-6.061.78-9.06-.84-10.32-3.9Zm-.06-9.059c-5.7.66-7.8,1.74-7.8,4.2,0,1.8,1.44,3,3.48,3a5.7,5.7,0,0,0,4.32-1.859Z"/><path class="cls-9" d="M277,69.65c-8.4,0-14.82-5.28-14.82-14.759s6.72-14.94,15.18-14.94c8.4,0,14.759,5.4,14.759,14.76S285.339,69.65,277,69.65Zm.12-22.679c-3.78,0-5.76,3.06-5.76,7.86,0,4.74,2.04,7.74,5.82,7.74s5.76-3,5.76-7.8C282.94,50.091,280.9,46.971,277.12,46.971Z"/><path class="cls-9" d="M320.14,55.671V68.75H310.9V29.092l9.24-1.14v24.9h.06l8.519-12h10.62l-10.26,13.26L339.4,68.75H328.9l-8.7-13.079Z"/><path class="cls-9" d="M342.819,68.75V29.092l9.24-1.14v40.8Z"/><path class="cls-9" d="M363.279,36.891c-3.359,0-5.46-1.739-5.46-4.919,0-3.24,2.1-4.98,5.46-4.98,3.42,0,5.46,1.74,5.46,4.98C368.739,35.152,366.7,36.891,363.279,36.891Zm-4.62,31.859V41.331l9.24-1.14V68.75Z"/><path class="cls-9" d="M409.6,68.75V52.311c0-3.36-1.44-4.5-3.78-4.5a6.835,6.835,0,0,0-4.5,1.8V68.75h-9.239V52.311c0-3.36-1.5-4.5-3.84-4.5a6.881,6.881,0,0,0-4.5,1.68V68.75H374.5V41.331l9.239-1.14v3.9c2.46-2.52,5.22-4.14,8.88-4.14a8.143,8.143,0,0,1,7.86,4.98c2.58-3,5.88-4.98,9.659-4.98,5.4,0,8.7,3.66,8.7,9.66V68.75Z"/><path class="cls-9" d="M440.378,65.39c-1.98,2.34-4.2,4.26-8.04,4.26-4.8,0-8.52-3.42-8.52-7.74,0-5.279,3.96-9.539,16.5-9.9v-.54c0-2.94-1.5-4.26-4.919-4.26-2.88,0-6.24,1.2-9.48,2.82L424,43.251a28.072,28.072,0,0,1,12.84-3.3c9.659,0,12.839,4.38,12.719,12.18l-.06,8.279c0,1.92.36,2.1,2.28,2.281l-.9,6.6c-6.06.78-9.06-.84-10.32-3.9Zm-.061-9.059c-5.7.66-7.8,1.74-7.8,4.2,0,1.8,1.44,3,3.48,3a5.7,5.7,0,0,0,4.319-1.859Z"/><path class="cls-9" d="M467.2,69.65c-6.9,0-10.62-2.82-10.26-10.14l.42-10.619-4.2-.72.181-5.88,4.2-1.38.12-6.36h8.94l-.06,6.66h6.96l-.18,7.26h-7.44l-.3,10.019c-.12,2.581,1.38,3.661,3.66,3.661a11.987,11.987,0,0,0,3.66-.721l1.08,7.2A20.934,20.934,0,0,1,467.2,69.65Z"/><path class="cls-9" d="M487.656,40.851v16.5c0,3.36,1.44,4.5,3.84,4.5a7.091,7.091,0,0,0,4.74-1.86V40.851h9.24V68.33l-9.24,1.14V65.33a12.685,12.685,0,0,1-9.06,4.32c-5.459,0-8.759-3.66-8.759-9.6v-19.2Z"/></g></svg>