<svg id="Layer_1" data-name="Layer 1" xmlns="http://www.w3.org/2000/svg" viewBox="0 0 1438 600"><defs><style>.cls-1{fill:#ff4d4f;}.cls-2{fill:#f8c752;}.cls-3{fill:#2d9589;}.cls-4{fill:#3ed0c0;}.cls-5{fill:#4297dd;}.cls-6{fill:#2e3d99;}.cls-7{fill:#7365be;}.cls-8{fill:#a63242;}.cls-9{fill:#fff;}</style></defs><path class="cls-1" d="M492.76,247.81a200.49,200.49,0,0,0-190.19-147v96a104,104,0,0,1,52.72,191.9l49.07,82.56A200.5,200.5,0,0,0,492.76,247.81Z"/><path class="cls-2" d="M297.29,196.87v-96a200.23,200.23,0,0,0-44.08,5.52l23.67,93.08A104.67,104.67,0,0,1,297.29,196.87Z"/><path class="cls-3" d="M203.72,125.48,251,209.06a103.79,103.79,0,0,1,20.72-8.33l-23.67-93.08A199.58,199.58,0,0,0,203.72,125.48Z"/><path class="cls-4" d="M246.44,211.66l-47.31-83.58a198.59,198.59,0,0,0-57,49.91l76.57,58A103.29,103.29,0,0,1,246.44,211.66Z"/><path class="cls-5" d="M138.91,182.2a201.26,201.26,0,0,0-34.49,76.59l94.15,18.93a104.74,104.74,0,0,1,16.92-37.55Z"/><path class="cls-6" d="M118.71,385.34l86.49-41.75a104.65,104.65,0,0,1-7.67-60.69L103.37,264A201.32,201.32,0,0,0,118.71,385.34Z"/><path class="cls-7" d="M221,484.52l36.76-88.74a103.76,103.76,0,0,1-50.23-47.43L121,390.1A199.74,199.74,0,0,0,221,484.52Z"/><path class="cls-8" d="M264.62,398.56l-2-.75-36.75,88.73c2,.81,4.1,1.59,6.16,2.34A199.29,199.29,0,0,0,399.82,474l-49.07-82.56A103.58,103.58,0,0,1,264.62,398.56Z"/><path class="cls-9" d="M560.81,172.08h74.83V194H587.09v21.6h38.67v21.76H587.09v39.34H560.81Z"/><path class="cls-9" d="M687.71,267.33c-5.53,6.53-11.72,11.89-22.44,11.89-13.39,0-23.77-9.54-23.77-21.6,0-14.73,11-26.61,46-27.62v-1.5c0-8.21-4.19-11.89-13.73-11.89-8,0-17.41,3.35-26.45,7.87L642,205.56a78.41,78.41,0,0,1,35.83-9.2c26.95,0,35.82,12.22,35.49,34l-.17,23.1c0,5.36,1,5.86,6.36,6.36L717,278.22c-16.91,2.17-25.28-2.35-28.79-10.89Zm-.17-25.27c-15.91,1.84-21.76,4.85-21.76,11.71,0,5,4,8.37,9.71,8.37a15.93,15.93,0,0,0,12-5.18Z"/><path class="cls-9" d="M769.4,279.22c-25.78,0-42.19-14.4-42.19-40.85,0-25.78,16.75-42,42.86-42,10.88,0,21.26,2.51,28.29,6.52l-5,19.42c-6.2-3.51-13.73-6-20.59-6-12.39,0-19.25,8.7-19.25,21.26,0,13.89,7.86,21.59,19.92,21.59A38.43,38.43,0,0,0,794,253.27l3.85,19.59C791.33,276.88,780.62,279.22,769.4,279.22Z"/><path class="cls-9" d="M843.56,279.22c-19.25,0-29.63-7.87-28.62-28.29l1.17-29.63-11.72-2,.5-16.41L816.61,199l.34-17.74h24.94l-.17,18.58h19.42l-.5,20.26H839.88l-.84,28c-.33,7.2,3.85,10.21,10.21,10.21a33.53,33.53,0,0,0,10.22-2l3,20.08A58.2,58.2,0,0,1,843.56,279.22Z"/><path class="cls-9" d="M903.16,279.22c-10.71,0-24.78-2.51-33-6.86l5-18.59c9,4.69,19.42,7.37,28.46,7.37,6.87,0,10.55-2.34,10.55-6.36,0-4.35-4.35-6-13.23-8-18.08-3.51-29.63-10.21-29.63-25.44,0-14.57,12.73-24.94,34.32-24.94,10.38,0,23.94,3,31.64,6.69l-5.19,18.42c-8.87-4.36-19.42-7-26.78-7-6.2,0-9.55,2-9.55,5.86,0,4.19,4.86,5.86,13.4,7.7,18.41,4,29.29,10,29.29,25.62C938.48,267.67,926.09,279.22,903.16,279.22Z"/><path class="cls-9" d="M596.3,428C572.86,428,555,413.3,555,386.85s18.75-41.69,42.35-41.69c23.44,0,41.19,15.07,41.19,41.19S619.57,428,596.3,428Zm.33-63.28c-10.54,0-16.07,8.54-16.07,21.93,0,13.23,5.7,21.6,16.24,21.6s16.07-8.37,16.07-21.77C612.87,373.46,607.18,364.75,596.63,364.75Z"/><path class="cls-9" d="M703.61,425.52v-46c0-9.37-4.19-12.39-11.05-12.39-5.69,0-10.71,2.85-14.06,5.86v52.57H652.72V349l25.78-3.18v12.73c6.86-7.87,16.07-13.4,26.11-13.4,15.57,0,24.78,10.22,24.78,26.79v53.57Z"/><path class="cls-9" d="M865.83,348.51A52.24,52.24,0,0,0,839.38,341c-18.08,0-29.8,12.22-29.8,32,0,19.93,11,32.48,30,32.48a50.39,50.39,0,0,0,27.63-8.54l5.52,23.61c-8.2,4.52-22.1,7.53-34.32,7.53-33.48,0-55.58-19.25-55.58-54.41,0-33.81,21.93-55.24,56.42-55.24a80.58,80.58,0,0,1,34.65,7.87Z"/><path class="cls-9" d="M888.09,425.52V314.86l25.78-3.18V425.52Z"/><path class="cls-9" d="M945.18,336.63c-9.38,0-15.24-4.86-15.24-13.73,0-9,5.86-13.9,15.24-13.9,9.54,0,15.23,4.86,15.23,13.9C960.41,331.77,954.72,336.63,945.18,336.63Zm-12.89,88.89V349l25.78-3.18v79.69Z"/><path class="cls-9" d="M1074.42,425.52V379.65c0-9.37-4-12.56-10.55-12.56a19.08,19.08,0,0,0-12.56,5v53.4h-25.78V379.65c0-9.37-4.18-12.56-10.71-12.56a19.2,19.2,0,0,0-12.56,4.69v53.74H976.48V349l25.78-3.18v10.89c6.87-7,14.57-11.56,24.78-11.56,9.71,0,18.25,4.86,21.93,13.9,7.2-8.37,16.41-13.9,27-13.9,15.07,0,24.28,10.22,24.28,27v53.4Z"/><path class="cls-9" d="M1160.3,416.14c-5.53,6.53-11.72,11.89-22.44,11.89-13.39,0-23.77-9.54-23.77-21.6,0-14.73,11.05-26.61,46-27.62v-1.5c0-8.21-4.19-11.89-13.73-11.89-8,0-17.41,3.35-26.45,7.87l-5.36-18.92a78.41,78.41,0,0,1,35.83-9.21c26.95,0,35.82,12.22,35.49,34l-.17,23.1c0,5.36,1,5.86,6.36,6.36L1189.59,427c-16.91,2.17-25.28-2.35-28.79-10.89Zm-.17-25.27c-15.9,1.84-21.76,4.85-21.76,11.71,0,5,4,8.37,9.71,8.37a15.9,15.9,0,0,0,12.05-5.19Z"/><path class="cls-9" d="M1235.13,428c-19.25,0-29.63-7.87-28.63-28.29l1.17-29.63-11.72-2,.51-16.41,11.71-3.85.34-17.74h24.94l-.16,18.58h19.41l-.5,20.26h-20.76l-.83,27.95c-.34,7.2,3.85,10.21,10.21,10.21a33.47,33.47,0,0,0,10.21-2l3,20.08A58.09,58.09,0,0,1,1235.13,428Z"/><path class="cls-9" d="M1287.19,392.71c.84,10.38,8,16.4,20.59,16.4,8.54,0,17.58-3,25.45-7.53l2.51,19.92c-7.87,4-19.08,6.36-30.3,6.36-26.45,0-43.52-14.73-43.52-40.68,0-25.44,17.41-42,42.18-42,22.1,0,34.15,13.23,34.15,32.65a58.47,58.47,0,0,1-1.67,13.73l-49.39.83Zm27.12-13.39v-1.51c0-9.21-3.85-14.9-11.88-14.9-8.88,0-14.23,7.7-15.07,16.57Z"/></svg>